<?xml version="1.0" encoding="UTF-8"?>
<svg width="374px" height="548px" viewBox="0 0 374 548" version="1.1" xmlns="http://www.w3.org/2000/svg" xmlns:xlink="http://www.w3.org/1999/xlink">
    <!-- Generator: Sketch 52.2 (67145) - http://www.bohemiancoding.com/sketch -->
    <title>Untitled 2</title>
    <desc>Created with Sketch.</desc>
    <g id="Page-1" stroke="none" stroke-width="1" fill="none" fill-rule="evenodd">
        <path d="M152.81,433.547 L221.174,433.547 L221.174,540.827 C199.747,539.6169 177.468,543.0004 152.81,540.827 L152.81,433.547 Z" id="Path" fill="#4D4D4D"></path>
        <path d="M152.81,433.547 L221.174,433.547 L221.174,490.071 C199.747,489.43342 177.468,491.2161 152.81,490.071 L152.81,433.547 Z" id="Path" fill="#333333"></path>
        <rect id="Rectangle" fill="#C5E1A5" transform="translate(186.800000, 233.467000) rotate(-90.000000) translate(-186.800000, -233.467000) " x="-39.79" y="60.267" width="453.18" height="346.4"></rect>
        <rect id="Rectangle" fill="#FFFFFF" transform="translate(186.800000, 233.467000) rotate(-90.000000) translate(-186.800000, -233.467000) " x="-39.79" y="96.637" width="453.18" height="273.66"></rect>
        <g id="Group" transform="translate(282.542600, 15.172350)" fill="#7986CB">
            <circle id="Oval" cx="32.049" cy="5.379" r="4.7193"></circle>
            <circle id="Oval" cx="18.52" cy="5.379" r="4.7193"></circle>
            <circle id="Oval" cx="5.306" cy="5.379" r="4.7193"></circle>
        </g>
        <path d="M0.71,476.837 L373.28,476.837 L373.28,0.297 L0.71,0.297 L0.71,476.837 Z M19.964,453.461 L19.964,20.171 L352.484,20.171 L352.484,454.181 L19.964,453.461 Z" id="Shape" fill="#4D4D4D"></path>
        <path d="M82.27,547.527 L291.72,547.527 C292.8563,547.527 294.1952,547.15964 293.7711,546.77129 L283.5201,537.39079 C283.09575,537.00241 278.7614,536.63505 277.6253,536.63505 L96.3653,536.63505 C95.229,536.63505 90.8949,537.00241 90.4703,537.39079 L80.2193,546.77129 C79.79477,547.15964 81.1339,547.527 82.27,547.527 Z" id="Path" fill="#424242"></path>
        <rect id="Rectangle" fill="#FF8F00" x="66.4" y="35.82" width="140.42" height="11.065"></rect>
        <rect id="Rectangle" fill="#26C6DA" x="73.95" y="79.238" width="30.618" height="6.3462"></rect>
        <path d="M75.1856548,84.5063781 C75.0211261,84.7498727 72.8559517,84.4783885 72.5996283,84.4360138 C72.3539892,84.3954109 70.2858151,83.9653922 70.1990318,83.682128 C70.1084378,83.3865488 71.3837996,81.234727 71.5419796,80.9850925 C71.6936238,80.7458696 73.0329695,78.7758355 73.2774294,78.8257449 C73.5325521,78.8778296 74.4224366,81.3011267 74.5205081,81.5931272 C74.6145102,81.8729529 75.3433315,84.2729707 75.1856405,84.5062904 L75.1856548,84.5063781 Z" id="Path" fill="#26C6DA" transform="translate(72.701162, 81.715694) rotate(18.396675) translate(-72.701162, -81.715694) "></path>
        <path d="M108.367331,84.5063781 C108.202802,84.7498727 106.037628,84.4783885 105.781304,84.4360138 C105.535665,84.3954109 103.467491,83.9653922 103.380708,83.682128 C103.290114,83.3865488 104.565476,81.234727 104.723656,80.9850925 C104.8753,80.7458696 106.214645,78.7758355 106.459105,78.8257449 C106.714228,78.8778296 107.604113,81.3011267 107.702184,81.5931272 C107.796186,81.8729529 108.525008,84.2729707 108.367316,84.5062904 L108.367331,84.5063781 Z" id="Path" fill="#26C6DA" transform="translate(105.882838, 81.715694) scale(-1, 1) rotate(18.396675) translate(-105.882838, -81.715694) "></path>
        <rect id="Rectangle" fill="#26C6DA" x="90.94" y="91.508" width="30.618" height="6.3462"></rect>
        <path d="M92.1756548,96.7763781 C92.0111261,97.0198727 89.8459517,96.7483885 89.5896283,96.7060138 C89.3439892,96.6654109 87.2758151,96.2353922 87.1890318,95.952128 C87.0984378,95.6565488 88.3737996,93.504727 88.5319796,93.2550925 C88.6836238,93.0158696 90.0229695,91.0458355 90.2674294,91.0957449 C90.5225521,91.1478296 91.4124366,93.5711267 91.5105081,93.8631272 C91.6045102,94.1429529 92.3333315,96.5429707 92.1756405,96.7762904 L92.1756548,96.7763781 Z" id="Path" fill="#26C6DA" transform="translate(89.691162, 93.985694) rotate(18.396675) translate(-89.691162, -93.985694) "></path>
        <path d="M125.357331,96.7763781 C125.192802,97.0198727 123.027628,96.7483885 122.771304,96.7060138 C122.525665,96.6654109 120.457491,96.2353922 120.370708,95.952128 C120.280114,95.6565488 121.555476,93.504727 121.713656,93.2550925 C121.8653,93.0158696 123.204645,91.0458355 123.449105,91.0957449 C123.704228,91.1478296 124.594113,93.5711267 124.692184,93.8631272 C124.786186,94.1429529 125.515008,96.5429707 125.357316,96.7762904 L125.357331,96.7763781 Z" id="Path" fill="#26C6DA" transform="translate(122.872838, 93.985694) scale(-1, 1) rotate(18.396675) translate(-122.872838, -93.985694) "></path>
        <rect id="Rectangle" fill="#26C6DA" x="104.15" y="103.147" width="30.618" height="6.3462"></rect>
        <path d="M105.389455,108.417378 C105.224926,108.660873 103.059752,108.389389 102.803428,108.347014 C102.557789,108.306411 100.489615,107.876392 100.402832,107.593128 C100.312238,107.297549 101.5876,105.145727 101.74578,104.896092 C101.897424,104.65687 103.236769,102.686836 103.481229,102.736745 C103.736352,102.78883 104.626237,105.212127 104.724308,105.504127 C104.81831,105.783953 105.547131,108.183971 105.38944,108.41729 L105.389455,108.417378 Z" id="Path" fill="#26C6DA" transform="translate(102.904962, 105.626694) rotate(18.396675) translate(-102.904962, -105.626694) "></path>
        <path d="M138.567331,108.417378 C138.402802,108.660873 136.237628,108.389389 135.981304,108.347014 C135.735665,108.306411 133.667491,107.876392 133.580708,107.593128 C133.490114,107.297549 134.765476,105.145727 134.923656,104.896092 C135.0753,104.65687 136.414645,102.686836 136.659105,102.736745 C136.914228,102.78883 137.804113,105.212127 137.902184,105.504127 C137.996186,105.783953 138.725008,108.183971 138.567316,108.41729 L138.567331,108.417378 Z" id="Path" fill="#26C6DA" transform="translate(136.082838, 105.626694) scale(-1, 1) rotate(18.396675) translate(-136.082838, -105.626694) "></path>
        <rect id="Rectangle" fill="#26C6DA" x="104.47" y="115.107" width="30.618" height="6.3462"></rect>
        <path d="M105.704055,120.372378 C105.539526,120.615873 103.374352,120.344389 103.118028,120.302014 C102.872389,120.261411 100.804215,119.831392 100.717432,119.548128 C100.626838,119.252549 101.9022,117.100727 102.06038,116.851092 C102.212024,116.61187 103.551369,114.641836 103.795829,114.691745 C104.050952,114.74383 104.940837,117.167127 105.038908,117.459127 C105.13291,117.738953 105.861731,120.138971 105.70404,120.37229 L105.704055,120.372378 Z" id="Path" fill="#26C6DA" transform="translate(103.219562, 117.581694) rotate(18.396675) translate(-103.219562, -117.581694) "></path>
        <path d="M138.877331,120.372378 C138.712802,120.615873 136.547628,120.344389 136.291304,120.302014 C136.045665,120.261411 133.977491,119.831392 133.890708,119.548128 C133.800114,119.252549 135.075476,117.100727 135.233656,116.851092 C135.3853,116.61187 136.724645,114.641836 136.969105,114.691745 C137.224228,114.74383 138.114113,117.167127 138.212184,117.459127 C138.306186,117.738953 139.035008,120.138971 138.877316,120.37229 L138.877331,120.372378 Z" id="Path" fill="#26C6DA" transform="translate(136.392838, 117.581694) scale(-1, 1) rotate(18.396675) translate(-136.392838, -117.581694) "></path>
        <rect id="Rectangle" fill="#26C6DA" x="104.78" y="126.747" width="30.618" height="6.3462"></rect>
        <path d="M106.018655,132.012378 C105.854126,132.255873 103.688952,131.984389 103.432628,131.942014 C103.186989,131.901411 101.118815,131.471392 101.032032,131.188128 C100.941438,130.892549 102.2168,128.740727 102.37498,128.491092 C102.526624,128.25187 103.865969,126.281836 104.110429,126.331745 C104.365552,126.38383 105.255437,128.807127 105.353508,129.099127 C105.44751,129.378953 106.176331,131.778971 106.01864,132.01229 L106.018655,132.012378 Z" id="Path" fill="#26C6DA" transform="translate(103.534162, 129.221694) rotate(18.396675) translate(-103.534162, -129.221694) "></path>
        <path d="M139.197331,132.012378 C139.032802,132.255873 136.867628,131.984389 136.611304,131.942014 C136.365665,131.901411 134.297491,131.471392 134.210708,131.188128 C134.120114,130.892549 135.395476,128.740727 135.553656,128.491092 C135.7053,128.25187 137.044645,126.281836 137.289105,126.331745 C137.544228,126.38383 138.434113,128.807127 138.532184,129.099127 C138.626186,129.378953 139.355008,131.778971 139.197316,132.01229 L139.197331,132.012378 Z" id="Path" fill="#26C6DA" transform="translate(136.712838, 129.221694) scale(-1, 1) rotate(18.396675) translate(-136.712838, -129.221694) "></path>
        <rect id="Rectangle" fill="#26C6DA" x="104.78" y="138.697" width="30.618" height="6.3462"></rect>
        <path d="M106.018655,143.972378 C105.854126,144.215873 103.688952,143.944389 103.432628,143.902014 C103.186989,143.861411 101.118815,143.431392 101.032032,143.148128 C100.941438,142.852549 102.2168,140.700727 102.37498,140.451092 C102.526624,140.21187 103.865969,138.241836 104.110429,138.291745 C104.365552,138.34383 105.255437,140.767127 105.353508,141.059127 C105.44751,141.338953 106.176331,143.738971 106.01864,143.97229 L106.018655,143.972378 Z" id="Path" fill="#26C6DA" transform="translate(103.534162, 141.181694) rotate(18.396675) translate(-103.534162, -141.181694) "></path>
        <path d="M139.197331,143.972378 C139.032802,144.215873 136.867628,143.944389 136.611304,143.902014 C136.365665,143.861411 134.297491,143.431392 134.210708,143.148128 C134.120114,142.852549 135.395476,140.700727 135.553656,140.451092 C135.7053,140.21187 137.044645,138.241836 137.289105,138.291745 C137.544228,138.34383 138.434113,140.767127 138.532184,141.059127 C138.626186,141.338953 139.355008,143.738971 139.197316,143.97229 L139.197331,143.972378 Z" id="Path" fill="#26C6DA" transform="translate(136.712838, 141.181694) scale(-1, 1) rotate(18.396675) translate(-136.712838, -141.181694) "></path>
        <rect id="Rectangle" fill="#26C6DA" x="104.78" y="180.857" width="30.618" height="6.3462"></rect>
        <path d="M106.018655,186.132378 C105.854126,186.375873 103.688952,186.104389 103.432628,186.062014 C103.186989,186.021411 101.118815,185.591392 101.032032,185.308128 C100.941438,185.012549 102.2168,182.860727 102.37498,182.611092 C102.526624,182.37187 103.865969,180.401836 104.110429,180.451745 C104.365552,180.50383 105.255437,182.927127 105.353508,183.219127 C105.44751,183.498953 106.176331,185.898971 106.01864,186.13229 L106.018655,186.132378 Z" id="Path" fill="#26C6DA" transform="translate(103.534162, 183.341694) rotate(18.396675) translate(-103.534162, -183.341694) "></path>
        <path d="M139.197331,186.132378 C139.032802,186.375873 136.867628,186.104389 136.611304,186.062014 C136.365665,186.021411 134.297491,185.591392 134.210708,185.308128 C134.120114,185.012549 135.395476,182.860727 135.553656,182.611092 C135.7053,182.37187 137.044645,180.401836 137.289105,180.451745 C137.544228,180.50383 138.434113,182.927127 138.532184,183.219127 C138.626186,183.498953 139.355008,185.898971 139.197316,186.13229 L139.197331,186.132378 Z" id="Path" fill="#26C6DA" transform="translate(136.712838, 183.341694) scale(-1, 1) rotate(18.396675) translate(-136.712838, -183.341694) "></path>
        <rect id="Rectangle" fill="#26C6DA" x="106.04" y="192.817" width="30.618" height="6.3462"></rect>
        <path d="M107.277155,198.082378 C107.112626,198.325873 104.947452,198.054389 104.691128,198.012014 C104.445489,197.971411 102.377315,197.541392 102.290532,197.258128 C102.199938,196.962549 103.4753,194.810727 103.63348,194.561092 C103.785124,194.32187 105.124469,192.351836 105.368929,192.401745 C105.624052,192.45383 106.513937,194.877127 106.612008,195.169127 C106.70601,195.448953 107.434831,197.848971 107.27714,198.08229 L107.277155,198.082378 Z" id="Path" fill="#26C6DA" transform="translate(104.792662, 195.291694) rotate(18.396675) translate(-104.792662, -195.291694) "></path>
        <path d="M140.457331,198.082378 C140.292802,198.325873 138.127628,198.054389 137.871304,198.012014 C137.625665,197.971411 135.557491,197.541392 135.470708,197.258128 C135.380114,196.962549 136.655476,194.810727 136.813656,194.561092 C136.9653,194.32187 138.304645,192.351836 138.549105,192.401745 C138.804228,192.45383 139.694113,194.877127 139.792184,195.169127 C139.886186,195.448953 140.615008,197.848971 140.457316,198.08229 L140.457331,198.082378 Z" id="Path" fill="#26C6DA" transform="translate(137.972838, 195.291694) scale(-1, 1) rotate(18.396675) translate(-137.972838, -195.291694) "></path>
        <rect id="Rectangle" fill="#26C6DA" x="90.94" y="206.027" width="30.618" height="6.3462"></rect>
        <path d="M92.1756548,211.302378 C92.0111261,211.545873 89.8459517,211.274389 89.5896283,211.232014 C89.3439892,211.191411 87.2758151,210.761392 87.1890318,210.478128 C87.0984378,210.182549 88.3737996,208.030727 88.5319796,207.781092 C88.6836238,207.54187 90.0229695,205.571836 90.2674294,205.621745 C90.5225521,205.67383 91.4124366,208.097127 91.5105081,208.389127 C91.6045102,208.668953 92.3333315,211.068971 92.1756405,211.30229 L92.1756548,211.302378 Z" id="Path" fill="#26C6DA" transform="translate(89.691162, 208.511694) rotate(18.396675) translate(-89.691162, -208.511694) "></path>
        <path d="M125.357331,211.302378 C125.192802,211.545873 123.027628,211.274389 122.771304,211.232014 C122.525665,211.191411 120.457491,210.761392 120.370708,210.478128 C120.280114,210.182549 121.555476,208.030727 121.713656,207.781092 C121.8653,207.54187 123.204645,205.571836 123.449105,205.621745 C123.704228,205.67383 124.594113,208.097127 124.692184,208.389127 C124.786186,208.668953 125.515008,211.068971 125.357316,211.30229 L125.357331,211.302378 Z" id="Path" fill="#26C6DA" transform="translate(122.872838, 208.511694) scale(-1, 1) rotate(18.396675) translate(-122.872838, -208.511694) "></path>
        <rect id="Rectangle" fill="#26C6DA" x="90.94" y="221.767" width="30.618" height="6.3462"></rect>
        <path d="M92.1756548,227.032378 C92.0111261,227.275873 89.8459517,227.004389 89.5896283,226.962014 C89.3439892,226.921411 87.2758151,226.491392 87.1890318,226.208128 C87.0984378,225.912549 88.3737996,223.760727 88.5319796,223.511092 C88.6836238,223.27187 90.0229695,221.301836 90.2674294,221.351745 C90.5225521,221.40383 91.4124366,223.827127 91.5105081,224.119127 C91.6045102,224.398953 92.3333315,226.798971 92.1756405,227.03229 L92.1756548,227.032378 Z" id="Path" fill="#26C6DA" transform="translate(89.691162, 224.241694) rotate(18.396675) translate(-89.691162, -224.241694) "></path>
        <path d="M125.357331,227.032378 C125.192802,227.275873 123.027628,227.004389 122.771304,226.962014 C122.525665,226.921411 120.457491,226.491392 120.370708,226.208128 C120.280114,225.912549 121.555476,223.760727 121.713656,223.511092 C121.8653,223.27187 123.204645,221.301836 123.449105,221.351745 C123.704228,221.40383 124.594113,223.827127 124.692184,224.119127 C124.786186,224.398953 125.515008,226.798971 125.357316,227.03229 L125.357331,227.032378 Z" id="Path" fill="#26C6DA" transform="translate(122.872838, 224.241694) scale(-1, 1) rotate(18.396675) translate(-122.872838, -224.241694) "></path>
        <rect id="Rectangle" fill="#CCCCCC" x="147.498" y="138.697" width="146.66" height="6.3462"></rect>
        <path d="M148.733655,143.972378 C148.569126,144.215873 146.403952,143.944389 146.147628,143.902014 C145.901989,143.861411 143.833815,143.431392 143.747032,143.148128 C143.656438,142.852549 144.9318,140.700727 145.08998,140.451092 C145.241624,140.21187 146.580969,138.241836 146.825429,138.291745 C147.080552,138.34383 147.970437,140.767127 148.068508,141.059127 C148.16251,141.338953 148.891331,143.738971 148.73364,143.97229 L148.733655,143.972378 Z" id="Path" fill="#CCCCCC" transform="translate(146.249162, 141.181694) rotate(18.396675) translate(-146.249162, -141.181694) "></path>
        <path d="M297.691331,143.972378 C297.526802,144.215873 295.361628,143.944389 295.105304,143.902014 C294.859665,143.861411 292.791491,143.431392 292.704708,143.148128 C292.614114,142.852549 293.889476,140.700727 294.047656,140.451092 C294.1993,140.21187 295.538645,138.241836 295.783105,138.291745 C296.038228,138.34383 296.928113,140.767127 297.026184,141.059127 C297.120186,141.338953 297.849008,143.738971 297.691316,143.97229 L297.691331,143.972378 Z" id="Path" fill="#CCCCCC" transform="translate(295.206838, 141.181694) scale(-1, 1) rotate(18.396675) translate(-295.206838, -141.181694) "></path>
        <rect id="Rectangle" fill="#CCCCCC" x="105.53" y="150.027" width="188.36" height="6.3462"></rect>
        <path d="M106.976501,155.368734 C106.7749,155.618891 104.121861,155.339979 103.807782,155.296445 C103.506794,155.254731 100.972611,154.812946 100.866274,154.521932 C100.755267,154.218265 102.317998,152.007567 102.51182,151.751102 C102.697633,151.505334 104.338765,149.481398 104.638307,149.532673 C104.950915,149.586182 106.041312,152.075784 106.161481,152.375774 C106.276664,152.663256 107.169706,155.128941 106.976484,155.368644 L106.976501,155.368734 Z" id="Path" fill="#CCCCCC" transform="translate(103.932193, 152.501694) rotate(21.637539) translate(-103.932193, -152.501694) "></path>
        <path d="M298.093115,155.368734 C297.891514,155.618891 295.238474,155.339979 294.924395,155.296445 C294.623408,155.254731 292.089225,154.812946 291.982887,154.521932 C291.87188,154.218265 293.434611,152.007567 293.628433,151.751102 C293.814246,151.505334 295.455378,149.481398 295.754921,149.532673 C296.067529,149.586182 297.157925,152.075784 297.278095,152.375774 C297.393278,152.663256 298.28632,155.128941 298.093097,155.368644 L298.093115,155.368734 Z" id="Path" fill="#CCCCCC" transform="translate(295.048807, 152.501694) scale(-1, 1) rotate(21.637539) translate(-295.048807, -152.501694) "></path>
        <rect id="Rectangle" fill="#CCCCCC" x="105.53" y="160.727" width="188.36" height="6.3462"></rect>
        <path d="M106.976501,166.068734 C106.7749,166.318891 104.121861,166.039979 103.807782,165.996445 C103.506794,165.954731 100.972611,165.512946 100.866274,165.221932 C100.755267,164.918265 102.317998,162.707567 102.51182,162.451102 C102.697633,162.205334 104.338765,160.181398 104.638307,160.232673 C104.950915,160.286182 106.041312,162.775784 106.161481,163.075774 C106.276664,163.363256 107.169706,165.828941 106.976484,166.068644 L106.976501,166.068734 Z" id="Path" fill="#CCCCCC" transform="translate(103.932193, 163.201694) rotate(21.637539) translate(-103.932193, -163.201694) "></path>
        <path d="M298.093115,166.068734 C297.891514,166.318891 295.238474,166.039979 294.924395,165.996445 C294.623408,165.954731 292.089225,165.512946 291.982887,165.221932 C291.87188,164.918265 293.434611,162.707567 293.628433,162.451102 C293.814246,162.205334 295.455378,160.181398 295.754921,160.232673 C296.067529,160.286182 297.157925,162.775784 297.278095,163.075774 C297.393278,163.363256 298.28632,165.828941 298.093097,166.068644 L298.093115,166.068734 Z" id="Path" fill="#CCCCCC" transform="translate(295.048807, 163.201694) scale(-1, 1) rotate(21.637539) translate(-295.048807, -163.201694) "></path>
        <rect id="Rectangle" fill="#CCCCCC" x="104.94" y="170.477" width="166.84" height="6.3462"></rect>
        <path d="M106.276719,175.777073 C106.094533,176.023595 103.696995,175.748735 103.413163,175.705834 C103.141163,175.664726 100.851035,175.229361 100.754938,174.942576 C100.654622,174.643322 102.066854,172.464747 102.242009,172.212009 C102.409928,171.969812 103.89301,169.975286 104.163705,170.025816 C104.446207,170.078548 105.431593,172.531973 105.54019,172.827603 C105.64428,173.110908 106.451317,175.540764 106.276703,175.776984 L106.276719,175.777073 Z" id="Path" fill="#CCCCCC" transform="translate(103.525594, 172.951694) rotate(19.989704) translate(-103.525594, -172.951694) "></path>
        <path d="M275.553532,175.777073 C275.371346,176.023595 272.973808,175.748735 272.689976,175.705834 C272.417975,175.664726 270.127848,175.229361 270.031751,174.942576 C269.931435,174.643322 271.343666,172.464747 271.518822,172.212009 C271.686741,171.969812 273.169823,169.975286 273.440518,170.025816 C273.72302,170.078548 274.708406,172.531973 274.817002,172.827603 C274.921092,173.110908 275.72813,175.540764 275.553516,175.776984 L275.553532,175.777073 Z" id="Path" fill="#CCCCCC" transform="translate(272.802406, 172.951694) scale(-1, 1) rotate(19.989704) translate(-272.802406, -172.951694) "></path>
        <rect id="Rectangle" fill="#FF7043" x="148.202" y="114.787" width="30.618" height="6.3462"></rect>
        <path d="M149.436655,120.062378 C149.272126,120.305873 147.106952,120.034389 146.850628,119.992014 C146.604989,119.951411 144.536815,119.521392 144.450032,119.238128 C144.359438,118.942549 145.6348,116.790727 145.79298,116.541092 C145.944624,116.30187 147.283969,114.331836 147.528429,114.381745 C147.783552,114.43383 148.673437,116.857127 148.771508,117.149127 C148.86551,117.428953 149.594331,119.828971 149.43664,120.06229 L149.436655,120.062378 Z" id="Path" fill="#FF7043" transform="translate(146.952162, 117.271694) rotate(18.396675) translate(-146.952162, -117.271694) "></path>
        <path d="M182.617331,120.062378 C182.452802,120.305873 180.287628,120.034389 180.031304,119.992014 C179.785665,119.951411 177.717491,119.521392 177.630708,119.238128 C177.540114,118.942549 178.815476,116.790727 178.973656,116.541092 C179.1253,116.30187 180.464645,114.331836 180.709105,114.381745 C180.964228,114.43383 181.854113,116.857127 181.952184,117.149127 C182.046186,117.428953 182.775008,119.828971 182.617316,120.06229 L182.617331,120.062378 Z" id="Path" fill="#FF7043" transform="translate(180.132838, 117.271694) scale(-1, 1) rotate(18.396675) translate(-180.132838, -117.271694) "></path>
        <rect id="Rectangle" fill="#FF7043" x="224.6548" y="114.787" width="30.618" height="6.3462"></rect>
        <path d="M225.891655,120.062378 C225.727126,120.305873 223.561952,120.034389 223.305628,119.992014 C223.059989,119.951411 220.991815,119.521392 220.905032,119.238128 C220.814438,118.942549 222.0898,116.790727 222.24798,116.541092 C222.399624,116.30187 223.738969,114.331836 223.983429,114.381745 C224.238552,114.43383 225.128437,116.857127 225.226508,117.149127 C225.32051,117.428953 226.049331,119.828971 225.89164,120.06229 L225.891655,120.062378 Z" id="Path" fill="#FF7043" transform="translate(223.407162, 117.271694) rotate(18.396675) translate(-223.407162, -117.271694) "></path>
        <path d="M259.067331,120.062378 C258.902802,120.305873 256.737628,120.034389 256.481304,119.992014 C256.235665,119.951411 254.167491,119.521392 254.080708,119.238128 C253.990114,118.942549 255.265476,116.790727 255.423656,116.541092 C255.5753,116.30187 256.914645,114.331836 257.159105,114.381745 C257.414228,114.43383 258.304113,116.857127 258.402184,117.149127 C258.496186,117.428953 259.225008,119.828971 259.067316,120.06229 L259.067331,120.062378 Z" id="Path" fill="#FF7043" transform="translate(256.582838, 117.271694) scale(-1, 1) rotate(18.396675) translate(-256.582838, -117.271694) "></path>
        <rect id="Rectangle" fill="#26C6DA" x="265.556" y="114.787" width="30.618" height="6.3462"></rect>
        <path d="M266.791655,120.062378 C266.627126,120.305873 264.461952,120.034389 264.205628,119.992014 C263.959989,119.951411 261.891815,119.521392 261.805032,119.238128 C261.714438,118.942549 262.9898,116.790727 263.14798,116.541092 C263.299624,116.30187 264.638969,114.331836 264.883429,114.381745 C265.138552,114.43383 266.028437,116.857127 266.126508,117.149127 C266.22051,117.428953 266.949331,119.828971 266.79164,120.06229 L266.791655,120.062378 Z" id="Path" fill="#26C6DA" transform="translate(264.307162, 117.271694) rotate(18.396675) translate(-264.307162, -117.271694) "></path>
        <path d="M299.967331,120.062378 C299.802802,120.305873 297.637628,120.034389 297.381304,119.992014 C297.135665,119.951411 295.067491,119.521392 294.980708,119.238128 C294.890114,118.942549 296.165476,116.790727 296.323656,116.541092 C296.4753,116.30187 297.814645,114.331836 298.059105,114.381745 C298.314228,114.43383 299.204113,116.857127 299.302184,117.149127 C299.396186,117.428953 300.125008,119.828971 299.967316,120.06229 L299.967331,120.062378 Z" id="Path" fill="#26C6DA" transform="translate(297.482838, 117.271694) scale(-1, 1) rotate(18.396675) translate(-297.482838, -117.271694) "></path>
        <rect id="Rectangle" fill="#CCCCCC" x="189.392" y="114.787" width="25.644" height="6.3462"></rect>
        <path d="M190.523531,120.02639 C190.379313,120.266744 188.481435,119.998761 188.256755,119.956933 C188.04144,119.916854 186.228587,119.49238 186.152517,119.212769 C186.073107,118.921002 187.191023,116.79693 187.329675,116.550514 C187.462599,116.314376 188.636599,114.369747 188.85088,114.419013 C189.074507,114.470426 189.854533,116.862473 189.940498,117.150708 C190.022895,117.426925 190.661742,119.795992 190.523518,120.026303 L190.523531,120.02639 Z" id="Path" fill="#CCCCCC" transform="translate(188.345754, 117.271694) rotate(16.454096) translate(-188.345754, -117.271694) "></path>
        <path d="M218.306023,120.02639 C218.161805,120.266744 216.263927,119.998761 216.039247,119.956933 C215.823932,119.916854 214.011079,119.49238 213.935009,119.212769 C213.855599,118.921002 214.973515,116.79693 215.112167,116.550514 C215.245091,116.314376 216.419091,114.369747 216.633372,114.419013 C216.856999,114.470426 217.637025,116.862473 217.72299,117.150708 C217.805387,117.426925 218.444234,119.795992 218.30601,120.026303 L218.306023,120.02639 Z" id="Path" fill="#CCCCCC" transform="translate(216.128246, 117.271694) scale(-1, 1) rotate(16.454096) translate(-216.128246, -117.271694) "></path>
        <rect id="Rectangle" fill="#FF7043" x="134.044" y="206.027" width="50.282" height="6.3462"></rect>
        <path d="M135.278655,211.302378 C135.114126,211.545873 132.948952,211.274389 132.692628,211.232014 C132.446989,211.191411 130.378815,210.761392 130.292032,210.478128 C130.201438,210.182549 131.4768,208.030727 131.63498,207.781092 C131.786624,207.54187 133.125969,205.571836 133.370429,205.621745 C133.625552,205.67383 134.515437,208.097127 134.613508,208.389127 C134.70751,208.668953 135.436331,211.068971 135.27864,211.30229 L135.278655,211.302378 Z" id="Path" fill="#FF7043" transform="translate(132.794162, 208.511694) rotate(18.396675) translate(-132.794162, -208.511694) "></path>
        <path d="M187.957331,211.302378 C187.792802,211.545873 185.627628,211.274389 185.371304,211.232014 C185.125665,211.191411 183.057491,210.761392 182.970708,210.478128 C182.880114,210.182549 184.155476,208.030727 184.313656,207.781092 C184.4653,207.54187 185.804645,205.571836 186.049105,205.621745 C186.304228,205.67383 187.194113,208.097127 187.292184,208.389127 C187.386186,208.668953 188.115008,211.068971 187.957316,211.30229 L187.957331,211.302378 Z" id="Path" fill="#FF7043" transform="translate(185.472838, 208.511694) scale(-1, 1) rotate(18.396675) translate(-185.472838, -208.511694) "></path>
        <rect id="Rectangle" fill="#FF7043" x="134.516" y="221.137" width="50.282" height="6.3462"></rect>
        <path d="M135.750655,226.402378 C135.586126,226.645873 133.420952,226.374389 133.164628,226.332014 C132.918989,226.291411 130.850815,225.861392 130.764032,225.578128 C130.673438,225.282549 131.9488,223.130727 132.10698,222.881092 C132.258624,222.64187 133.597969,220.671836 133.842429,220.721745 C134.097552,220.77383 134.987437,223.197127 135.085508,223.489127 C135.17951,223.768953 135.908331,226.168971 135.75064,226.40229 L135.750655,226.402378 Z" id="Path" fill="#FF7043" transform="translate(133.266162, 223.611694) rotate(18.396675) translate(-133.266162, -223.611694) "></path>
        <path d="M188.437331,226.402378 C188.272802,226.645873 186.107628,226.374389 185.851304,226.332014 C185.605665,226.291411 183.537491,225.861392 183.450708,225.578128 C183.360114,225.282549 184.635476,223.130727 184.793656,222.881092 C184.9453,222.64187 186.284645,220.671836 186.529105,220.721745 C186.784228,220.77383 187.674113,223.197127 187.772184,223.489127 C187.866186,223.768953 188.595008,226.168971 188.437316,226.40229 L188.437331,226.402378 Z" id="Path" fill="#FF7043" transform="translate(185.952838, 223.611694) scale(-1, 1) rotate(18.396675) translate(-185.952838, -223.611694) "></path>
        <rect id="Rectangle" fill="#26C6DA" x="106.04" y="235.917" width="30.618" height="6.3462"></rect>
        <path d="M107.277155,241.192378 C107.112626,241.435873 104.947452,241.164389 104.691128,241.122014 C104.445489,241.081411 102.377315,240.651392 102.290532,240.368128 C102.199938,240.072549 103.4753,237.920727 103.63348,237.671092 C103.785124,237.43187 105.124469,235.461836 105.368929,235.511745 C105.624052,235.56383 106.513937,237.987127 106.612008,238.279127 C106.70601,238.558953 107.434831,240.958971 107.27714,241.19229 L107.277155,241.192378 Z" id="Path" fill="#26C6DA" transform="translate(104.792662, 238.401694) rotate(18.396675) translate(-104.792662, -238.401694) "></path>
        <path d="M140.457331,241.192378 C140.292802,241.435873 138.127628,241.164389 137.871304,241.122014 C137.625665,241.081411 135.557491,240.651392 135.470708,240.368128 C135.380114,240.072549 136.655476,237.920727 136.813656,237.671092 C136.9653,237.43187 138.304645,235.461836 138.549105,235.511745 C138.804228,235.56383 139.694113,237.987127 139.792184,238.279127 C139.886186,238.558953 140.615008,240.958971 140.457316,241.19229 L140.457331,241.192378 Z" id="Path" fill="#26C6DA" transform="translate(137.972838, 238.401694) scale(-1, 1) rotate(18.396675) translate(-137.972838, -238.401694) "></path>
        <rect id="Rectangle" fill="#FF7043" x="149.617" y="235.287" width="80.316" height="6.3462"></rect>
        <path d="M150.852655,240.562378 C150.688126,240.805873 148.522952,240.534389 148.266628,240.492014 C148.020989,240.451411 145.952815,240.021392 145.866032,239.738128 C145.775438,239.442549 147.0508,237.290727 147.20898,237.041092 C147.360624,236.80187 148.699969,234.831836 148.944429,234.881745 C149.199552,234.93383 150.089437,237.357127 150.187508,237.649127 C150.28151,237.928953 151.010331,240.328971 150.85264,240.56229 L150.852655,240.562378 Z" id="Path" fill="#FF7043" transform="translate(148.368162, 237.771694) rotate(18.396675) translate(-148.368162, -237.771694) "></path>
        <path d="M233.127331,240.562378 C232.962802,240.805873 230.797628,240.534389 230.541304,240.492014 C230.295665,240.451411 228.227491,240.021392 228.140708,239.738128 C228.050114,239.442549 229.325476,237.290727 229.483656,237.041092 C229.6353,236.80187 230.974645,234.831836 231.219105,234.881745 C231.474228,234.93383 232.364113,237.357127 232.462184,237.649127 C232.556186,237.928953 233.285008,240.328971 233.127316,240.56229 L233.127331,240.562378 Z" id="Path" fill="#FF7043" transform="translate(230.642838, 237.771694) scale(-1, 1) rotate(18.396675) translate(-230.642838, -237.771694) "></path>
        <rect id="Rectangle" fill="#26C6DA" x="106.04" y="247.877" width="30.618" height="6.3462"></rect>
        <path d="M107.277155,253.142378 C107.112626,253.385873 104.947452,253.114389 104.691128,253.072014 C104.445489,253.031411 102.377315,252.601392 102.290532,252.318128 C102.199938,252.022549 103.4753,249.870727 103.63348,249.621092 C103.785124,249.38187 105.124469,247.411836 105.368929,247.461745 C105.624052,247.51383 106.513937,249.937127 106.612008,250.229127 C106.70601,250.508953 107.434831,252.908971 107.27714,253.14229 L107.277155,253.142378 Z" id="Path" fill="#26C6DA" transform="translate(104.792662, 250.351694) rotate(18.396675) translate(-104.792662, -250.351694) "></path>
        <path d="M140.457331,253.142378 C140.292802,253.385873 138.127628,253.114389 137.871304,253.072014 C137.625665,253.031411 135.557491,252.601392 135.470708,252.318128 C135.380114,252.022549 136.655476,249.870727 136.813656,249.621092 C136.9653,249.38187 138.304645,247.411836 138.549105,247.461745 C138.804228,247.51383 139.694113,249.937127 139.792184,250.229127 C139.886186,250.508953 140.615008,252.908971 140.457316,253.14229 L140.457331,253.142378 Z" id="Path" fill="#26C6DA" transform="translate(137.972838, 250.351694) scale(-1, 1) rotate(18.396675) translate(-137.972838, -250.351694) "></path>
        <rect id="Rectangle" fill="#FF8F00" x="66.4" y="51.838" width="115.06" height="3.5015"></rect>
        <rect id="Rectangle" fill="#2196F3" transform="translate(186.800000, 64.668200) rotate(-90.000000) translate(-186.800000, -64.668200) " x="185.6372" y="-72.1618" width="2.3256" height="273.66"></rect>
        <rect id="Rectangle" fill="#CCCCCC" x="196.182" y="205.717" width="80.316" height="6.3462"></rect>
        <path d="M197.416655,210.982378 C197.252126,211.225873 195.086952,210.954389 194.830628,210.912014 C194.584989,210.871411 192.516815,210.441392 192.430032,210.158128 C192.339438,209.862549 193.6148,207.710727 193.77298,207.461092 C193.924624,207.22187 195.263969,205.251836 195.508429,205.301745 C195.763552,205.35383 196.653437,207.777127 196.751508,208.069127 C196.84551,208.348953 197.574331,210.748971 197.41664,210.98229 L197.416655,210.982378 Z" id="Path" fill="#CCCCCC" transform="translate(194.932162, 208.191694) rotate(18.396675) translate(-194.932162, -208.191694) "></path>
        <path d="M279.689331,210.982378 C279.524802,211.225873 277.359628,210.954389 277.103304,210.912014 C276.857665,210.871411 274.789491,210.441392 274.702708,210.158128 C274.612114,209.862549 275.887476,207.710727 276.045656,207.461092 C276.1973,207.22187 277.536645,205.251836 277.781105,205.301745 C278.036228,205.35383 278.926113,207.777127 279.024184,208.069127 C279.118186,208.348953 279.847008,210.748971 279.689316,210.98229 L279.689331,210.982378 Z" id="Path" fill="#CCCCCC" transform="translate(277.204838, 208.191694) scale(-1, 1) rotate(18.396675) translate(-277.204838, -208.191694) "></path>
        <rect id="Rectangle" fill="#CCCCCC" x="197.44" y="220.187" width="80.316" height="6.3462"></rect>
        <path d="M198.674655,225.452378 C198.510126,225.695873 196.344952,225.424389 196.088628,225.382014 C195.842989,225.341411 193.774815,224.911392 193.688032,224.628128 C193.597438,224.332549 194.8728,222.180727 195.03098,221.931092 C195.182624,221.69187 196.521969,219.721836 196.766429,219.771745 C197.021552,219.82383 197.911437,222.247127 198.009508,222.539127 C198.10351,222.818953 198.832331,225.218971 198.67464,225.45229 L198.674655,225.452378 Z" id="Path" fill="#CCCCCC" transform="translate(196.190162, 222.661694) rotate(18.396675) translate(-196.190162, -222.661694) "></path>
        <path d="M280.947331,225.452378 C280.782802,225.695873 278.617628,225.424389 278.361304,225.382014 C278.115665,225.341411 276.047491,224.911392 275.960708,224.628128 C275.870114,224.332549 277.145476,222.180727 277.303656,221.931092 C277.4553,221.69187 278.794645,219.721836 279.039105,219.771745 C279.294228,219.82383 280.184113,222.247127 280.282184,222.539127 C280.376186,222.818953 281.105008,225.218971 280.947316,225.45229 L280.947331,225.452378 Z" id="Path" fill="#CCCCCC" transform="translate(278.462838, 222.661694) scale(-1, 1) rotate(18.396675) translate(-278.462838, -222.661694) "></path>
        <rect id="Rectangle" fill="#CCCCCC" x="241.959" y="235.917" width="30.618" height="6.3462"></rect>
        <path d="M243.191655,241.192378 C243.027126,241.435873 240.861952,241.164389 240.605628,241.122014 C240.359989,241.081411 238.291815,240.651392 238.205032,240.368128 C238.114438,240.072549 239.3898,237.920727 239.54798,237.671092 C239.699624,237.43187 241.038969,235.461836 241.283429,235.511745 C241.538552,235.56383 242.428437,237.987127 242.526508,238.279127 C242.62051,238.558953 243.349331,240.958971 243.19164,241.19229 L243.191655,241.192378 Z" id="Path" fill="#CCCCCC" transform="translate(240.707162, 238.401694) rotate(18.396675) translate(-240.707162, -238.401694) "></path>
        <path d="M276.371331,241.192378 C276.206802,241.435873 274.041628,241.164389 273.785304,241.122014 C273.539665,241.081411 271.471491,240.651392 271.384708,240.368128 C271.294114,240.072549 272.569476,237.920727 272.727656,237.671092 C272.8793,237.43187 274.218645,235.461836 274.463105,235.511745 C274.718228,235.56383 275.608113,237.987127 275.706184,238.279127 C275.800186,238.558953 276.529008,240.958971 276.371316,241.19229 L276.371331,241.192378 Z" id="Path" fill="#CCCCCC" transform="translate(273.886838, 238.401694) scale(-1, 1) rotate(18.396675) translate(-273.886838, -238.401694) "></path>
        <rect id="Rectangle" fill="#CCCCCC" x="150.53" y="248.187" width="142.48" height="6.3462"></rect>
        <path d="M151.746703,253.455635 C151.585803,253.698541 149.468381,253.427713 149.217711,253.38544 C148.977489,253.344936 146.954928,252.915956 146.870059,252.633376 C146.781463,252.338511 148.028697,250.191889 148.183388,249.942858 C148.331688,249.704213 149.641495,247.738939 149.880563,247.788728 C150.130059,247.840687 151.000317,250.258128 151.096226,250.549423 C151.188155,250.828573 151.900902,253.222791 151.746689,253.455547 L151.746703,253.455635 Z" id="Path" fill="#CCCCCC" transform="translate(149.317005, 250.671694) rotate(18.058087) translate(-149.317005, -250.671694) "></path>
        <path d="M296.456693,253.455635 C296.295793,253.698541 294.178371,253.427713 293.927701,253.38544 C293.687479,253.344936 291.664918,252.915956 291.580049,252.633376 C291.491453,252.338511 292.738687,250.191889 292.893378,249.942858 C293.041678,249.704213 294.351484,247.738939 294.590553,247.788728 C294.840049,247.840687 295.710307,250.258128 295.806216,250.549423 C295.898145,250.828573 296.610892,253.222791 296.456679,253.455547 L296.456693,253.455635 Z" id="Path" fill="#CCCCCC" transform="translate(294.026995, 250.671694) scale(-1, 1) rotate(18.058087) translate(-294.026995, -250.671694) "></path>
        <rect id="Rectangle" fill="#26C6DA" x="107.4" y="261.647" width="30.618" height="6.3462"></rect>
        <path d="M108.638155,266.912378 C108.473626,267.155873 106.308452,266.884389 106.052128,266.842014 C105.806489,266.801411 103.738315,266.371392 103.651532,266.088128 C103.560938,265.792549 104.8363,263.640727 104.99448,263.391092 C105.146124,263.15187 106.485469,261.181836 106.729929,261.231745 C106.985052,261.28383 107.874937,263.707127 107.973008,263.999127 C108.06701,264.278953 108.795831,266.678971 108.63814,266.91229 L108.638155,266.912378 Z" id="Path" fill="#26C6DA" transform="translate(106.153662, 264.121694) rotate(18.396675) translate(-106.153662, -264.121694) "></path>
        <path d="M141.817331,266.912378 C141.652802,267.155873 139.487628,266.884389 139.231304,266.842014 C138.985665,266.801411 136.917491,266.371392 136.830708,266.088128 C136.740114,265.792549 138.015476,263.640727 138.173656,263.391092 C138.3253,263.15187 139.664645,261.181836 139.909105,261.231745 C140.164228,261.28383 141.054113,263.707127 141.152184,263.999127 C141.246186,264.278953 141.975008,266.678971 141.817316,266.91229 L141.817331,266.912378 Z" id="Path" fill="#26C6DA" transform="translate(139.332838, 264.121694) scale(-1, 1) rotate(18.396675) translate(-139.332838, -264.121694) "></path>
        <rect id="Rectangle" fill="#26C6DA" x="107.4" y="277.377" width="30.618" height="6.3462"></rect>
        <path d="M108.638155,282.652378 C108.473626,282.895873 106.308452,282.624389 106.052128,282.582014 C105.806489,282.541411 103.738315,282.111392 103.651532,281.828128 C103.560938,281.532549 104.8363,279.380727 104.99448,279.131092 C105.146124,278.89187 106.485469,276.921836 106.729929,276.971745 C106.985052,277.02383 107.874937,279.447127 107.973008,279.739127 C108.06701,280.018953 108.795831,282.418971 108.63814,282.65229 L108.638155,282.652378 Z" id="Path" fill="#26C6DA" transform="translate(106.153662, 279.861694) rotate(18.396675) translate(-106.153662, -279.861694) "></path>
        <path d="M141.817331,282.652378 C141.652802,282.895873 139.487628,282.624389 139.231304,282.582014 C138.985665,282.541411 136.917491,282.111392 136.830708,281.828128 C136.740114,281.532549 138.015476,279.380727 138.173656,279.131092 C138.3253,278.89187 139.664645,276.921836 139.909105,276.971745 C140.164228,277.02383 141.054113,279.447127 141.152184,279.739127 C141.246186,280.018953 141.975008,282.418971 141.817316,282.65229 L141.817331,282.652378 Z" id="Path" fill="#26C6DA" transform="translate(139.332838, 279.861694) scale(-1, 1) rotate(18.396675) translate(-139.332838, -279.861694) "></path>
        <rect id="Rectangle" fill="#FF7043" x="150.506" y="261.647" width="50.282" height="6.3462"></rect>
        <path d="M151.741655,266.912378 C151.577126,267.155873 149.411952,266.884389 149.155628,266.842014 C148.909989,266.801411 146.841815,266.371392 146.755032,266.088128 C146.664438,265.792549 147.9398,263.640727 148.09798,263.391092 C148.249624,263.15187 149.588969,261.181836 149.833429,261.231745 C150.088552,261.28383 150.978437,263.707127 151.076508,263.999127 C151.17051,264.278953 151.899331,266.678971 151.74164,266.91229 L151.741655,266.912378 Z" id="Path" fill="#FF7043" transform="translate(149.257162, 264.121694) rotate(18.396675) translate(-149.257162, -264.121694) "></path>
        <path d="M204.427331,266.912378 C204.262802,267.155873 202.097628,266.884389 201.841304,266.842014 C201.595665,266.801411 199.527491,266.371392 199.440708,266.088128 C199.350114,265.792549 200.625476,263.640727 200.783656,263.391092 C200.9353,263.15187 202.274645,261.181836 202.519105,261.231745 C202.774228,261.28383 203.664113,263.707127 203.762184,263.999127 C203.856186,264.278953 204.585008,266.678971 204.427316,266.91229 L204.427331,266.912378 Z" id="Path" fill="#FF7043" transform="translate(201.942838, 264.121694) scale(-1, 1) rotate(18.396675) translate(-201.942838, -264.121694) "></path>
        <rect id="Rectangle" fill="#FF7043" x="150.978" y="276.747" width="50.282" height="6.3462"></rect>
        <path d="M152.213655,282.022378 C152.049126,282.265873 149.883952,281.994389 149.627628,281.952014 C149.381989,281.911411 147.313815,281.481392 147.227032,281.198128 C147.136438,280.902549 148.4118,278.750727 148.56998,278.501092 C148.721624,278.26187 150.060969,276.291836 150.305429,276.341745 C150.560552,276.39383 151.450437,278.817127 151.548508,279.109127 C151.64251,279.388953 152.371331,281.788971 152.21364,282.02229 L152.213655,282.022378 Z" id="Path" fill="#FF7043" transform="translate(149.729162, 279.231694) rotate(18.396675) translate(-149.729162, -279.231694) "></path>
        <path d="M204.897331,282.022378 C204.732802,282.265873 202.567628,281.994389 202.311304,281.952014 C202.065665,281.911411 199.997491,281.481392 199.910708,281.198128 C199.820114,280.902549 201.095476,278.750727 201.253656,278.501092 C201.4053,278.26187 202.744645,276.291836 202.989105,276.341745 C203.244228,276.39383 204.134113,278.817127 204.232184,279.109127 C204.326186,279.388953 205.055008,281.788971 204.897316,282.02229 L204.897331,282.022378 Z" id="Path" fill="#FF7043" transform="translate(202.412838, 279.231694) scale(-1, 1) rotate(18.396675) translate(-202.412838, -279.231694) "></path>
        <rect id="Rectangle" fill="#CCCCCC" x="212.644" y="261.337" width="80.316" height="6.3462"></rect>
        <path d="M213.881655,266.602378 C213.717126,266.845873 211.551952,266.574389 211.295628,266.532014 C211.049989,266.491411 208.981815,266.061392 208.895032,265.778128 C208.804438,265.482549 210.0798,263.330727 210.23798,263.081092 C210.389624,262.84187 211.728969,260.871836 211.973429,260.921745 C212.228552,260.97383 213.118437,263.397127 213.216508,263.689127 C213.31051,263.968953 214.039331,266.368971 213.88164,266.60229 L213.881655,266.602378 Z" id="Path" fill="#CCCCCC" transform="translate(211.397162, 263.811694) rotate(18.396675) translate(-211.397162, -263.811694) "></path>
        <path d="M296.151331,266.602378 C295.986802,266.845873 293.821628,266.574389 293.565304,266.532014 C293.319665,266.491411 291.251491,266.061392 291.164708,265.778128 C291.074114,265.482549 292.349476,263.330727 292.507656,263.081092 C292.6593,262.84187 293.998645,260.871836 294.243105,260.921745 C294.498228,260.97383 295.388113,263.397127 295.486184,263.689127 C295.580186,263.968953 296.309008,266.368971 296.151316,266.60229 L296.151331,266.602378 Z" id="Path" fill="#CCCCCC" transform="translate(293.666838, 263.811694) scale(-1, 1) rotate(18.396675) translate(-293.666838, -263.811694) "></path>
        <rect id="Rectangle" fill="#CCCCCC" x="213.903" y="275.807" width="80.316" height="6.3462"></rect>
        <path d="M215.141655,281.072378 C214.977126,281.315873 212.811952,281.044389 212.555628,281.002014 C212.309989,280.961411 210.241815,280.531392 210.155032,280.248128 C210.064438,279.952549 211.3398,277.800727 211.49798,277.551092 C211.649624,277.31187 212.988969,275.341836 213.233429,275.391745 C213.488552,275.44383 214.378437,277.867127 214.476508,278.159127 C214.57051,278.438953 215.299331,280.838971 215.14164,281.07229 L215.141655,281.072378 Z" id="Path" fill="#CCCCCC" transform="translate(212.657162, 278.281694) rotate(18.396675) translate(-212.657162, -278.281694) "></path>
        <path d="M297.410331,281.072378 C297.245802,281.315873 295.080628,281.044389 294.824304,281.002014 C294.578665,280.961411 292.510491,280.531392 292.423708,280.248128 C292.333114,279.952549 293.608476,277.800727 293.766656,277.551092 C293.9183,277.31187 295.257645,275.341836 295.502105,275.391745 C295.757228,275.44383 296.647113,277.867127 296.745184,278.159127 C296.839186,278.438953 297.568008,280.838971 297.410316,281.07229 L297.410331,281.072378 Z" id="Path" fill="#CCCCCC" transform="translate(294.925838, 278.281694) scale(-1, 1) rotate(18.396675) translate(-294.925838, -278.281694) "></path>
        <rect id="Rectangle" fill="#26C6DA" x="107.4" y="289.237" width="30.618" height="6.3462"></rect>
        <path d="M108.638155,294.502378 C108.473626,294.745873 106.308452,294.474389 106.052128,294.432014 C105.806489,294.391411 103.738315,293.961392 103.651532,293.678128 C103.560938,293.382549 104.8363,291.230727 104.99448,290.981092 C105.146124,290.74187 106.485469,288.771836 106.729929,288.821745 C106.985052,288.87383 107.874937,291.297127 107.973008,291.589127 C108.06701,291.868953 108.795831,294.268971 108.63814,294.50229 L108.638155,294.502378 Z" id="Path" fill="#26C6DA" transform="translate(106.153662, 291.711694) rotate(18.396675) translate(-106.153662, -291.711694) "></path>
        <path d="M141.817331,294.502378 C141.652802,294.745873 139.487628,294.474389 139.231304,294.432014 C138.985665,294.391411 136.917491,293.961392 136.830708,293.678128 C136.740114,293.382549 138.015476,291.230727 138.173656,290.981092 C138.3253,290.74187 139.664645,288.771836 139.909105,288.821745 C140.164228,288.87383 141.054113,291.297127 141.152184,291.589127 C141.246186,291.868953 141.975008,294.268971 141.817316,294.50229 L141.817331,294.502378 Z" id="Path" fill="#26C6DA" transform="translate(139.332838, 291.711694) scale(-1, 1) rotate(18.396675) translate(-139.332838, -291.711694) "></path>
        <rect id="Rectangle" fill="#26C6DA" x="107.4" y="304.967" width="30.618" height="6.3462"></rect>
        <path d="M108.638155,310.232378 C108.473626,310.475873 106.308452,310.204389 106.052128,310.162014 C105.806489,310.121411 103.738315,309.691392 103.651532,309.408128 C103.560938,309.112549 104.8363,306.960727 104.99448,306.711092 C105.146124,306.47187 106.485469,304.501836 106.729929,304.551745 C106.985052,304.60383 107.874937,307.027127 107.973008,307.319127 C108.06701,307.598953 108.795831,309.998971 108.63814,310.23229 L108.638155,310.232378 Z" id="Path" fill="#26C6DA" transform="translate(106.153662, 307.441694) rotate(18.396675) translate(-106.153662, -307.441694) "></path>
        <path d="M141.817331,310.232378 C141.652802,310.475873 139.487628,310.204389 139.231304,310.162014 C138.985665,310.121411 136.917491,309.691392 136.830708,309.408128 C136.740114,309.112549 138.015476,306.960727 138.173656,306.711092 C138.3253,306.47187 139.664645,304.501836 139.909105,304.551745 C140.164228,304.60383 141.054113,307.027127 141.152184,307.319127 C141.246186,307.598953 141.975008,309.998971 141.817316,310.23229 L141.817331,310.232378 Z" id="Path" fill="#26C6DA" transform="translate(139.332838, 307.441694) scale(-1, 1) rotate(18.396675) translate(-139.332838, -307.441694) "></path>
        <rect id="Rectangle" fill="#FF7043" x="150.506" y="289.237" width="50.282" height="6.3462"></rect>
        <path d="M151.741655,294.502378 C151.577126,294.745873 149.411952,294.474389 149.155628,294.432014 C148.909989,294.391411 146.841815,293.961392 146.755032,293.678128 C146.664438,293.382549 147.9398,291.230727 148.09798,290.981092 C148.249624,290.74187 149.588969,288.771836 149.833429,288.821745 C150.088552,288.87383 150.978437,291.297127 151.076508,291.589127 C151.17051,291.868953 151.899331,294.268971 151.74164,294.50229 L151.741655,294.502378 Z" id="Path" fill="#FF7043" transform="translate(149.257162, 291.711694) rotate(18.396675) translate(-149.257162, -291.711694) "></path>
        <path d="M204.427331,294.502378 C204.262802,294.745873 202.097628,294.474389 201.841304,294.432014 C201.595665,294.391411 199.527491,293.961392 199.440708,293.678128 C199.350114,293.382549 200.625476,291.230727 200.783656,290.981092 C200.9353,290.74187 202.274645,288.771836 202.519105,288.821745 C202.774228,288.87383 203.664113,291.297127 203.762184,291.589127 C203.856186,291.868953 204.585008,294.268971 204.427316,294.50229 L204.427331,294.502378 Z" id="Path" fill="#FF7043" transform="translate(201.942838, 291.711694) scale(-1, 1) rotate(18.396675) translate(-201.942838, -291.711694) "></path>
        <rect id="Rectangle" fill="#FF7043" x="150.978" y="304.337" width="50.282" height="6.3462"></rect>
        <path d="M152.213655,309.602378 C152.049126,309.845873 149.883952,309.574389 149.627628,309.532014 C149.381989,309.491411 147.313815,309.061392 147.227032,308.778128 C147.136438,308.482549 148.4118,306.330727 148.56998,306.081092 C148.721624,305.84187 150.060969,303.871836 150.305429,303.921745 C150.560552,303.97383 151.450437,306.397127 151.548508,306.689127 C151.64251,306.968953 152.371331,309.368971 152.21364,309.60229 L152.213655,309.602378 Z" id="Path" fill="#FF7043" transform="translate(149.729162, 306.811694) rotate(18.396675) translate(-149.729162, -306.811694) "></path>
        <path d="M204.897331,309.602378 C204.732802,309.845873 202.567628,309.574389 202.311304,309.532014 C202.065665,309.491411 199.997491,309.061392 199.910708,308.778128 C199.820114,308.482549 201.095476,306.330727 201.253656,306.081092 C201.4053,305.84187 202.744645,303.871836 202.989105,303.921745 C203.244228,303.97383 204.134113,306.397127 204.232184,306.689127 C204.326186,306.968953 205.055008,309.368971 204.897316,309.60229 L204.897331,309.602378 Z" id="Path" fill="#FF7043" transform="translate(202.412838, 306.811694) scale(-1, 1) rotate(18.396675) translate(-202.412838, -306.811694) "></path>
        <rect id="Rectangle" fill="#CCCCCC" x="212.644" y="288.917" width="80.316" height="6.3462"></rect>
        <path d="M213.881655,294.192378 C213.717126,294.435873 211.551952,294.164389 211.295628,294.122014 C211.049989,294.081411 208.981815,293.651392 208.895032,293.368128 C208.804438,293.072549 210.0798,290.920727 210.23798,290.671092 C210.389624,290.43187 211.728969,288.461836 211.973429,288.511745 C212.228552,288.56383 213.118437,290.987127 213.216508,291.279127 C213.31051,291.558953 214.039331,293.958971 213.88164,294.19229 L213.881655,294.192378 Z" id="Path" fill="#CCCCCC" transform="translate(211.397162, 291.401694) rotate(18.396675) translate(-211.397162, -291.401694) "></path>
        <path d="M296.151331,294.192378 C295.986802,294.435873 293.821628,294.164389 293.565304,294.122014 C293.319665,294.081411 291.251491,293.651392 291.164708,293.368128 C291.074114,293.072549 292.349476,290.920727 292.507656,290.671092 C292.6593,290.43187 293.998645,288.461836 294.243105,288.511745 C294.498228,288.56383 295.388113,290.987127 295.486184,291.279127 C295.580186,291.558953 296.309008,293.958971 296.151316,294.19229 L296.151331,294.192378 Z" id="Path" fill="#CCCCCC" transform="translate(293.666838, 291.401694) scale(-1, 1) rotate(18.396675) translate(-293.666838, -291.401694) "></path>
        <rect id="Rectangle" fill="#CCCCCC" x="213.903" y="303.397" width="80.316" height="6.3462"></rect>
        <path d="M215.141655,308.662378 C214.977126,308.905873 212.811952,308.634389 212.555628,308.592014 C212.309989,308.551411 210.241815,308.121392 210.155032,307.838128 C210.064438,307.542549 211.3398,305.390727 211.49798,305.141092 C211.649624,304.90187 212.988969,302.931836 213.233429,302.981745 C213.488552,303.03383 214.378437,305.457127 214.476508,305.749127 C214.57051,306.028953 215.299331,308.428971 215.14164,308.66229 L215.141655,308.662378 Z" id="Path" fill="#CCCCCC" transform="translate(212.657162, 305.871694) rotate(18.396675) translate(-212.657162, -305.871694) "></path>
        <path d="M297.410331,308.662378 C297.245802,308.905873 295.080628,308.634389 294.824304,308.592014 C294.578665,308.551411 292.510491,308.121392 292.423708,307.838128 C292.333114,307.542549 293.608476,305.390727 293.766656,305.141092 C293.9183,304.90187 295.257645,302.931836 295.502105,302.981745 C295.757228,303.03383 296.647113,305.457127 296.745184,305.749127 C296.839186,306.028953 297.568008,308.428971 297.410316,308.66229 L297.410331,308.662378 Z" id="Path" fill="#CCCCCC" transform="translate(294.925838, 305.871694) scale(-1, 1) rotate(18.396675) translate(-294.925838, -305.871694) "></path>
        <rect id="Rectangle" fill="#26C6DA" x="90.94" y="322.607" width="30.618" height="6.3462"></rect>
        <path d="M92.1756548,327.872378 C92.0111261,328.115873 89.8459517,327.844389 89.5896283,327.802014 C89.3439892,327.761411 87.2758151,327.331392 87.1890318,327.048128 C87.0984378,326.752549 88.3737996,324.600727 88.5319796,324.351092 C88.6836238,324.11187 90.0229695,322.141836 90.2674294,322.191745 C90.5225521,322.24383 91.4124366,324.667127 91.5105081,324.959127 C91.6045102,325.238953 92.3333315,327.638971 92.1756405,327.87229 L92.1756548,327.872378 Z" id="Path" fill="#26C6DA" transform="translate(89.691162, 325.081694) rotate(18.396675) translate(-89.691162, -325.081694) "></path>
        <path d="M125.357331,327.872378 C125.192802,328.115873 123.027628,327.844389 122.771304,327.802014 C122.525665,327.761411 120.457491,327.331392 120.370708,327.048128 C120.280114,326.752549 121.555476,324.600727 121.713656,324.351092 C121.8653,324.11187 123.204645,322.141836 123.449105,322.191745 C123.704228,322.24383 124.594113,324.667127 124.692184,324.959127 C124.786186,325.238953 125.515008,327.638971 125.357316,327.87229 L125.357331,327.872378 Z" id="Path" fill="#26C6DA" transform="translate(122.872838, 325.081694) scale(-1, 1) rotate(18.396675) translate(-122.872838, -325.081694) "></path>
        <rect id="Rectangle" fill="#26C6DA" x="90.94" y="338.337" width="30.618" height="6.3462"></rect>
        <path d="M92.1756548,343.602378 C92.0111261,343.845873 89.8459517,343.574389 89.5896283,343.532014 C89.3439892,343.491411 87.2758151,343.061392 87.1890318,342.778128 C87.0984378,342.482549 88.3737996,340.330727 88.5319796,340.081092 C88.6836238,339.84187 90.0229695,337.871836 90.2674294,337.921745 C90.5225521,337.97383 91.4124366,340.397127 91.5105081,340.689127 C91.6045102,340.968953 92.3333315,343.368971 92.1756405,343.60229 L92.1756548,343.602378 Z" id="Path" fill="#26C6DA" transform="translate(89.691162, 340.811694) rotate(18.396675) translate(-89.691162, -340.811694) "></path>
        <path d="M125.357331,343.602378 C125.192802,343.845873 123.027628,343.574389 122.771304,343.532014 C122.525665,343.491411 120.457491,343.061392 120.370708,342.778128 C120.280114,342.482549 121.555476,340.330727 121.713656,340.081092 C121.8653,339.84187 123.204645,337.871836 123.449105,337.921745 C123.704228,337.97383 124.594113,340.397127 124.692184,340.689127 C124.786186,340.968953 125.515008,343.368971 125.357316,343.60229 L125.357331,343.602378 Z" id="Path" fill="#26C6DA" transform="translate(122.872838, 340.811694) scale(-1, 1) rotate(18.396675) translate(-122.872838, -340.811694) "></path>
        <rect id="Rectangle" fill="#FF7043" x="134.044" y="322.607" width="50.282" height="6.3462"></rect>
        <path d="M135.278655,327.872378 C135.114126,328.115873 132.948952,327.844389 132.692628,327.802014 C132.446989,327.761411 130.378815,327.331392 130.292032,327.048128 C130.201438,326.752549 131.4768,324.600727 131.63498,324.351092 C131.786624,324.11187 133.125969,322.141836 133.370429,322.191745 C133.625552,322.24383 134.515437,324.667127 134.613508,324.959127 C134.70751,325.238953 135.436331,327.638971 135.27864,327.87229 L135.278655,327.872378 Z" id="Path" fill="#FF7043" transform="translate(132.794162, 325.081694) rotate(18.396675) translate(-132.794162, -325.081694) "></path>
        <path d="M187.957331,327.872378 C187.792802,328.115873 185.627628,327.844389 185.371304,327.802014 C185.125665,327.761411 183.057491,327.331392 182.970708,327.048128 C182.880114,326.752549 184.155476,324.600727 184.313656,324.351092 C184.4653,324.11187 185.804645,322.141836 186.049105,322.191745 C186.304228,322.24383 187.194113,324.667127 187.292184,324.959127 C187.386186,325.238953 188.115008,327.638971 187.957316,327.87229 L187.957331,327.872378 Z" id="Path" fill="#FF7043" transform="translate(185.472838, 325.081694) scale(-1, 1) rotate(18.396675) translate(-185.472838, -325.081694) "></path>
        <rect id="Rectangle" fill="#FF7043" x="134.516" y="337.707" width="50.282" height="6.3462"></rect>
        <path d="M135.750655,342.972378 C135.586126,343.215873 133.420952,342.944389 133.164628,342.902014 C132.918989,342.861411 130.850815,342.431392 130.764032,342.148128 C130.673438,341.852549 131.9488,339.700727 132.10698,339.451092 C132.258624,339.21187 133.597969,337.241836 133.842429,337.291745 C134.097552,337.34383 134.987437,339.767127 135.085508,340.059127 C135.17951,340.338953 135.908331,342.738971 135.75064,342.97229 L135.750655,342.972378 Z" id="Path" fill="#FF7043" transform="translate(133.266162, 340.181694) rotate(18.396675) translate(-133.266162, -340.181694) "></path>
        <path d="M188.437331,342.972378 C188.272802,343.215873 186.107628,342.944389 185.851304,342.902014 C185.605665,342.861411 183.537491,342.431392 183.450708,342.148128 C183.360114,341.852549 184.635476,339.700727 184.793656,339.451092 C184.9453,339.21187 186.284645,337.241836 186.529105,337.291745 C186.784228,337.34383 187.674113,339.767127 187.772184,340.059127 C187.866186,340.338953 188.595008,342.738971 188.437316,342.97229 L188.437331,342.972378 Z" id="Path" fill="#FF7043" transform="translate(185.952838, 340.181694) scale(-1, 1) rotate(18.396675) translate(-185.952838, -340.181694) "></path>
        <rect id="Rectangle" fill="#CCCCCC" x="196.182" y="322.287" width="80.316" height="6.3462"></rect>
        <path d="M197.416655,327.562378 C197.252126,327.805873 195.086952,327.534389 194.830628,327.492014 C194.584989,327.451411 192.516815,327.021392 192.430032,326.738128 C192.339438,326.442549 193.6148,324.290727 193.77298,324.041092 C193.924624,323.80187 195.263969,321.831836 195.508429,321.881745 C195.763552,321.93383 196.653437,324.357127 196.751508,324.649127 C196.84551,324.928953 197.574331,327.328971 197.41664,327.56229 L197.416655,327.562378 Z" id="Path" fill="#CCCCCC" transform="translate(194.932162, 324.771694) rotate(18.396675) translate(-194.932162, -324.771694) "></path>
        <path d="M279.689331,327.562378 C279.524802,327.805873 277.359628,327.534389 277.103304,327.492014 C276.857665,327.451411 274.789491,327.021392 274.702708,326.738128 C274.612114,326.442549 275.887476,324.290727 276.045656,324.041092 C276.1973,323.80187 277.536645,321.831836 277.781105,321.881745 C278.036228,321.93383 278.926113,324.357127 279.024184,324.649127 C279.118186,324.928953 279.847008,327.328971 279.689316,327.56229 L279.689331,327.562378 Z" id="Path" fill="#CCCCCC" transform="translate(277.204838, 324.771694) scale(-1, 1) rotate(18.396675) translate(-277.204838, -324.771694) "></path>
        <rect id="Rectangle" fill="#CCCCCC" x="197.44" y="336.767" width="80.316" height="6.3462"></rect>
        <path d="M198.674655,342.032378 C198.510126,342.275873 196.344952,342.004389 196.088628,341.962014 C195.842989,341.921411 193.774815,341.491392 193.688032,341.208128 C193.597438,340.912549 194.8728,338.760727 195.03098,338.511092 C195.182624,338.27187 196.521969,336.301836 196.766429,336.351745 C197.021552,336.40383 197.911437,338.827127 198.009508,339.119127 C198.10351,339.398953 198.832331,341.798971 198.67464,342.03229 L198.674655,342.032378 Z" id="Path" fill="#CCCCCC" transform="translate(196.190162, 339.241694) rotate(18.396675) translate(-196.190162, -339.241694) "></path>
        <path d="M280.947331,342.032378 C280.782802,342.275873 278.617628,342.004389 278.361304,341.962014 C278.115665,341.921411 276.047491,341.491392 275.960708,341.208128 C275.870114,340.912549 277.145476,338.760727 277.303656,338.511092 C277.4553,338.27187 278.794645,336.301836 279.039105,336.351745 C279.294228,336.40383 280.184113,338.827127 280.282184,339.119127 C280.376186,339.398953 281.105008,341.798971 280.947316,342.03229 L280.947331,342.032378 Z" id="Path" fill="#CCCCCC" transform="translate(278.462838, 339.241694) scale(-1, 1) rotate(18.396675) translate(-278.462838, -339.241694) "></path>
        <rect id="Rectangle" fill="#26C6DA" x="106.04" y="352.497" width="30.618" height="6.3462"></rect>
        <path d="M107.277155,357.762378 C107.112626,358.005873 104.947452,357.734389 104.691128,357.692014 C104.445489,357.651411 102.377315,357.221392 102.290532,356.938128 C102.199938,356.642549 103.4753,354.490727 103.63348,354.241092 C103.785124,354.00187 105.124469,352.031836 105.368929,352.081745 C105.624052,352.13383 106.513937,354.557127 106.612008,354.849127 C106.70601,355.128953 107.434831,357.528971 107.27714,357.76229 L107.277155,357.762378 Z" id="Path" fill="#26C6DA" transform="translate(104.792662, 354.971694) rotate(18.396675) translate(-104.792662, -354.971694) "></path>
        <path d="M140.457331,357.762378 C140.292802,358.005873 138.127628,357.734389 137.871304,357.692014 C137.625665,357.651411 135.557491,357.221392 135.470708,356.938128 C135.380114,356.642549 136.655476,354.490727 136.813656,354.241092 C136.9653,354.00187 138.304645,352.031836 138.549105,352.081745 C138.804228,352.13383 139.694113,354.557127 139.792184,354.849127 C139.886186,355.128953 140.615008,357.528971 140.457316,357.76229 L140.457331,357.762378 Z" id="Path" fill="#26C6DA" transform="translate(137.972838, 354.971694) scale(-1, 1) rotate(18.396675) translate(-137.972838, -354.971694) "></path>
        <rect id="Rectangle" fill="#FF7043" x="149.617" y="351.867" width="80.316" height="6.3462"></rect>
        <path d="M150.852655,357.132378 C150.688126,357.375873 148.522952,357.104389 148.266628,357.062014 C148.020989,357.021411 145.952815,356.591392 145.866032,356.308128 C145.775438,356.012549 147.0508,353.860727 147.20898,353.611092 C147.360624,353.37187 148.699969,351.401836 148.944429,351.451745 C149.199552,351.50383 150.089437,353.927127 150.187508,354.219127 C150.28151,354.498953 151.010331,356.898971 150.85264,357.13229 L150.852655,357.132378 Z" id="Path" fill="#FF7043" transform="translate(148.368162, 354.341694) rotate(18.396675) translate(-148.368162, -354.341694) "></path>
        <path d="M233.127331,357.132378 C232.962802,357.375873 230.797628,357.104389 230.541304,357.062014 C230.295665,357.021411 228.227491,356.591392 228.140708,356.308128 C228.050114,356.012549 229.325476,353.860727 229.483656,353.611092 C229.6353,353.37187 230.974645,351.401836 231.219105,351.451745 C231.474228,351.50383 232.364113,353.927127 232.462184,354.219127 C232.556186,354.498953 233.285008,356.898971 233.127316,357.13229 L233.127331,357.132378 Z" id="Path" fill="#FF7043" transform="translate(230.642838, 354.341694) scale(-1, 1) rotate(18.396675) translate(-230.642838, -354.341694) "></path>
        <rect id="Rectangle" fill="#26C6DA" x="106.04" y="364.447" width="30.618" height="6.3462"></rect>
        <path d="M107.277155,369.722378 C107.112626,369.965873 104.947452,369.694389 104.691128,369.652014 C104.445489,369.611411 102.377315,369.181392 102.290532,368.898128 C102.199938,368.602549 103.4753,366.450727 103.63348,366.201092 C103.785124,365.96187 105.124469,363.991836 105.368929,364.041745 C105.624052,364.09383 106.513937,366.517127 106.612008,366.809127 C106.70601,367.088953 107.434831,369.488971 107.27714,369.72229 L107.277155,369.722378 Z" id="Path" fill="#26C6DA" transform="translate(104.792662, 366.931694) rotate(18.396675) translate(-104.792662, -366.931694) "></path>
        <path d="M140.457331,369.722378 C140.292802,369.965873 138.127628,369.694389 137.871304,369.652014 C137.625665,369.611411 135.557491,369.181392 135.470708,368.898128 C135.380114,368.602549 136.655476,366.450727 136.813656,366.201092 C136.9653,365.96187 138.304645,363.991836 138.549105,364.041745 C138.804228,364.09383 139.694113,366.517127 139.792184,366.809127 C139.886186,367.088953 140.615008,369.488971 140.457316,369.72229 L140.457331,369.722378 Z" id="Path" fill="#26C6DA" transform="translate(137.972838, 366.931694) scale(-1, 1) rotate(18.396675) translate(-137.972838, -366.931694) "></path>
        <rect id="Rectangle" fill="#CCCCCC" x="241.959" y="352.497" width="30.618" height="6.3462"></rect>
        <path d="M243.191655,357.762378 C243.027126,358.005873 240.861952,357.734389 240.605628,357.692014 C240.359989,357.651411 238.291815,357.221392 238.205032,356.938128 C238.114438,356.642549 239.3898,354.490727 239.54798,354.241092 C239.699624,354.00187 241.038969,352.031836 241.283429,352.081745 C241.538552,352.13383 242.428437,354.557127 242.526508,354.849127 C242.62051,355.128953 243.349331,357.528971 243.19164,357.76229 L243.191655,357.762378 Z" id="Path" fill="#CCCCCC" transform="translate(240.707162, 354.971694) rotate(18.396675) translate(-240.707162, -354.971694) "></path>
        <path d="M276.371331,357.762378 C276.206802,358.005873 274.041628,357.734389 273.785304,357.692014 C273.539665,357.651411 271.471491,357.221392 271.384708,356.938128 C271.294114,356.642549 272.569476,354.490727 272.727656,354.241092 C272.8793,354.00187 274.218645,352.031836 274.463105,352.081745 C274.718228,352.13383 275.608113,354.557127 275.706184,354.849127 C275.800186,355.128953 276.529008,357.528971 276.371316,357.76229 L276.371331,357.762378 Z" id="Path" fill="#CCCCCC" transform="translate(273.886838, 354.971694) scale(-1, 1) rotate(18.396675) translate(-273.886838, -354.971694) "></path>
        <rect id="Rectangle" fill="#CCCCCC" x="150.53" y="364.767" width="142.48" height="6.3462"></rect>
        <path d="M151.746703,370.025635 C151.585803,370.268541 149.468381,369.997713 149.217711,369.95544 C148.977489,369.914936 146.954928,369.485956 146.870059,369.203376 C146.781463,368.908511 148.028697,366.761889 148.183388,366.512858 C148.331688,366.274213 149.641495,364.308939 149.880563,364.358728 C150.130059,364.410687 151.000317,366.828128 151.096226,367.119423 C151.188155,367.398573 151.900902,369.792791 151.746689,370.025547 L151.746703,370.025635 Z" id="Path" fill="#CCCCCC" transform="translate(149.317005, 367.241694) rotate(18.058087) translate(-149.317005, -367.241694) "></path>
        <path d="M296.456693,370.025635 C296.295793,370.268541 294.178371,369.997713 293.927701,369.95544 C293.687479,369.914936 291.664918,369.485956 291.580049,369.203376 C291.491453,368.908511 292.738687,366.761889 292.893378,366.512858 C293.041678,366.274213 294.351484,364.308939 294.590553,364.358728 C294.840049,364.410687 295.710307,366.828128 295.806216,367.119423 C295.898145,367.398573 296.610892,369.792791 296.456679,370.025547 L296.456693,370.025635 Z" id="Path" fill="#CCCCCC" transform="translate(294.026995, 367.241694) scale(-1, 1) rotate(18.058087) translate(-294.026995, -367.241694) "></path>
        <rect id="Rectangle" fill="#26C6DA" x="106.04" y="378.297" width="30.618" height="6.3462"></rect>
        <path d="M107.277155,383.562378 C107.112626,383.805873 104.947452,383.534389 104.691128,383.492014 C104.445489,383.451411 102.377315,383.021392 102.290532,382.738128 C102.199938,382.442549 103.4753,380.290727 103.63348,380.041092 C103.785124,379.80187 105.124469,377.831836 105.368929,377.881745 C105.624052,377.93383 106.513937,380.357127 106.612008,380.649127 C106.70601,380.928953 107.434831,383.328971 107.27714,383.56229 L107.277155,383.562378 Z" id="Path" fill="#26C6DA" transform="translate(104.792662, 380.771694) rotate(18.396675) translate(-104.792662, -380.771694) "></path>
        <path d="M140.457331,383.562378 C140.292802,383.805873 138.127628,383.534389 137.871304,383.492014 C137.625665,383.451411 135.557491,383.021392 135.470708,382.738128 C135.380114,382.442549 136.655476,380.290727 136.813656,380.041092 C136.9653,379.80187 138.304645,377.831836 138.549105,377.881745 C138.804228,377.93383 139.694113,380.357127 139.792184,380.649127 C139.886186,380.928953 140.615008,383.328971 140.457316,383.56229 L140.457331,383.562378 Z" id="Path" fill="#26C6DA" transform="translate(137.972838, 380.771694) scale(-1, 1) rotate(18.396675) translate(-137.972838, -380.771694) "></path>
        <rect id="Rectangle" fill="#FF7043" x="149.617" y="377.667" width="80.316" height="6.3462"></rect>
        <path d="M150.852655,382.932378 C150.688126,383.175873 148.522952,382.904389 148.266628,382.862014 C148.020989,382.821411 145.952815,382.391392 145.866032,382.108128 C145.775438,381.812549 147.0508,379.660727 147.20898,379.411092 C147.360624,379.17187 148.699969,377.201836 148.944429,377.251745 C149.199552,377.30383 150.089437,379.727127 150.187508,380.019127 C150.28151,380.298953 151.010331,382.698971 150.85264,382.93229 L150.852655,382.932378 Z" id="Path" fill="#FF7043" transform="translate(148.368162, 380.141694) rotate(18.396675) translate(-148.368162, -380.141694) "></path>
        <path d="M233.127331,382.932378 C232.962802,383.175873 230.797628,382.904389 230.541304,382.862014 C230.295665,382.821411 228.227491,382.391392 228.140708,382.108128 C228.050114,381.812549 229.325476,379.660727 229.483656,379.411092 C229.6353,379.17187 230.974645,377.201836 231.219105,377.251745 C231.474228,377.30383 232.364113,379.727127 232.462184,380.019127 C232.556186,380.298953 233.285008,382.698971 233.127316,382.93229 L233.127331,382.932378 Z" id="Path" fill="#FF7043" transform="translate(230.642838, 380.141694) scale(-1, 1) rotate(18.396675) translate(-230.642838, -380.141694) "></path>
        <rect id="Rectangle" fill="#CCCCCC" x="241.959" y="378.297" width="30.618" height="6.3462"></rect>
        <path d="M243.191655,383.562378 C243.027126,383.805873 240.861952,383.534389 240.605628,383.492014 C240.359989,383.451411 238.291815,383.021392 238.205032,382.738128 C238.114438,382.442549 239.3898,380.290727 239.54798,380.041092 C239.699624,379.80187 241.038969,377.831836 241.283429,377.881745 C241.538552,377.93383 242.428437,380.357127 242.526508,380.649127 C242.62051,380.928953 243.349331,383.328971 243.19164,383.56229 L243.191655,383.562378 Z" id="Path" fill="#CCCCCC" transform="translate(240.707162, 380.771694) rotate(18.396675) translate(-240.707162, -380.771694) "></path>
        <path d="M276.371331,383.562378 C276.206802,383.805873 274.041628,383.534389 273.785304,383.492014 C273.539665,383.451411 271.471491,383.021392 271.384708,382.738128 C271.294114,382.442549 272.569476,380.290727 272.727656,380.041092 C272.8793,379.80187 274.218645,377.831836 274.463105,377.881745 C274.718228,377.93383 275.608113,380.357127 275.706184,380.649127 C275.800186,380.928953 276.529008,383.328971 276.371316,383.56229 L276.371331,383.562378 Z" id="Path" fill="#CCCCCC" transform="translate(273.886838, 380.771694) scale(-1, 1) rotate(18.396675) translate(-273.886838, -380.771694) "></path>
        <rect id="Rectangle" fill="#26C6DA" x="104.78" y="391.427" width="30.618" height="6.3462"></rect>
        <path d="M106.018655,396.692378 C105.854126,396.935873 103.688952,396.664389 103.432628,396.622014 C103.186989,396.581411 101.118815,396.151392 101.032032,395.868128 C100.941438,395.572549 102.2168,393.420727 102.37498,393.171092 C102.526624,392.93187 103.865969,390.961836 104.110429,391.011745 C104.365552,391.06383 105.255437,393.487127 105.353508,393.779127 C105.44751,394.058953 106.176331,396.458971 106.01864,396.69229 L106.018655,396.692378 Z" id="Path" fill="#26C6DA" transform="translate(103.534162, 393.901694) rotate(18.396675) translate(-103.534162, -393.901694) "></path>
        <path d="M139.197331,396.692378 C139.032802,396.935873 136.867628,396.664389 136.611304,396.622014 C136.365665,396.581411 134.297491,396.151392 134.210708,395.868128 C134.120114,395.572549 135.395476,393.420727 135.553656,393.171092 C135.7053,392.93187 137.044645,390.961836 137.289105,391.011745 C137.544228,391.06383 138.434113,393.487127 138.532184,393.779127 C138.626186,394.058953 139.355008,396.458971 139.197316,396.69229 L139.197331,396.692378 Z" id="Path" fill="#26C6DA" transform="translate(136.712838, 393.901694) scale(-1, 1) rotate(18.396675) translate(-136.712838, -393.901694) "></path>
        <rect id="Rectangle" fill="#CCCCCC" x="207.566" y="391.427" width="86.592" height="6.3462"></rect>
        <path d="M208.800655,396.692378 C208.636126,396.935873 206.470952,396.664389 206.214628,396.622014 C205.968989,396.581411 203.900815,396.151392 203.814032,395.868128 C203.723438,395.572549 204.9988,393.420727 205.15698,393.171092 C205.308624,392.93187 206.647969,390.961836 206.892429,391.011745 C207.147552,391.06383 208.037437,393.487127 208.135508,393.779127 C208.22951,394.058953 208.958331,396.458971 208.80064,396.69229 L208.800655,396.692378 Z" id="Path" fill="#CCCCCC" transform="translate(206.316162, 393.901694) rotate(18.396675) translate(-206.316162, -393.901694) "></path>
        <path d="M297.691331,396.692378 C297.526802,396.935873 295.361628,396.664389 295.105304,396.622014 C294.859665,396.581411 292.791491,396.151392 292.704708,395.868128 C292.614114,395.572549 293.889476,393.420727 294.047656,393.171092 C294.1993,392.93187 295.538645,390.961836 295.783105,391.011745 C296.038228,391.06383 296.928113,393.487127 297.026184,393.779127 C297.120186,394.058953 297.849008,396.458971 297.691316,396.69229 L297.691331,396.692378 Z" id="Path" fill="#CCCCCC" transform="translate(295.206838, 393.901694) scale(-1, 1) rotate(18.396675) translate(-295.206838, -393.901694) "></path>
        <rect id="Rectangle" fill="#CCCCCC" x="105.53" y="402.757" width="188.36" height="6.3462"></rect>
        <path d="M106.976501,408.098734 C106.7749,408.348891 104.121861,408.069979 103.807782,408.026445 C103.506794,407.984731 100.972611,407.542946 100.866274,407.251932 C100.755267,406.948265 102.317998,404.737567 102.51182,404.481102 C102.697633,404.235334 104.338765,402.211398 104.638307,402.262673 C104.950915,402.316182 106.041312,404.805784 106.161481,405.105774 C106.276664,405.393256 107.169706,407.858941 106.976484,408.098644 L106.976501,408.098734 Z" id="Path" fill="#CCCCCC" transform="translate(103.932193, 405.231694) rotate(21.637539) translate(-103.932193, -405.231694) "></path>
        <path d="M298.093115,408.098734 C297.891514,408.348891 295.238474,408.069979 294.924395,408.026445 C294.623408,407.984731 292.089225,407.542946 291.982887,407.251932 C291.87188,406.948265 293.434611,404.737567 293.628433,404.481102 C293.814246,404.235334 295.455378,402.211398 295.754921,402.262673 C296.067529,402.316182 297.157925,404.805784 297.278095,405.105774 C297.393278,405.393256 298.28632,407.858941 298.093097,408.098644 L298.093115,408.098734 Z" id="Path" fill="#CCCCCC" transform="translate(295.048807, 405.231694) scale(-1, 1) rotate(21.637539) translate(-295.048807, -405.231694) "></path>
        <rect id="Rectangle" fill="#CCCCCC" x="105.53" y="413.457" width="188.36" height="6.3462"></rect>
        <path d="M106.976501,418.798734 C106.7749,419.048891 104.121861,418.769979 103.807782,418.726445 C103.506794,418.684731 100.972611,418.242946 100.866274,417.951932 C100.755267,417.648265 102.317998,415.437567 102.51182,415.181102 C102.697633,414.935334 104.338765,412.911398 104.638307,412.962673 C104.950915,413.016182 106.041312,415.505784 106.161481,415.805774 C106.276664,416.093256 107.169706,418.558941 106.976484,418.798644 L106.976501,418.798734 Z" id="Path" fill="#CCCCCC" transform="translate(103.932193, 415.931694) rotate(21.637539) translate(-103.932193, -415.931694) "></path>
        <path d="M298.093115,418.798734 C297.891514,419.048891 295.238474,418.769979 294.924395,418.726445 C294.623408,418.684731 292.089225,418.242946 291.982887,417.951932 C291.87188,417.648265 293.434611,415.437567 293.628433,415.181102 C293.814246,414.935334 295.455378,412.911398 295.754921,412.962673 C296.067529,413.016182 297.157925,415.505784 297.278095,415.805774 C297.393278,416.093256 298.28632,418.558941 298.093097,418.798644 L298.093115,418.798734 Z" id="Path" fill="#CCCCCC" transform="translate(295.048807, 415.931694) scale(-1, 1) rotate(21.637539) translate(-295.048807, -415.931694) "></path>
        <rect id="Rectangle" fill="#FF7043" x="149.794" y="391.427" width="44.687" height="6.3462"></rect>
        <path d="M151.375199,396.824614 C151.14979,397.079647 148.183439,396.795298 147.832269,396.750916 C147.495736,396.708389 144.662278,396.257994 144.543382,395.961307 C144.419266,395.651722 146.166548,393.397937 146.383259,393.136473 C146.591016,392.885915 148.425958,390.822531 148.760876,390.874805 C149.110401,390.929358 150.329568,393.467482 150.463929,393.773319 C150.592715,394.066405 151.591221,396.580147 151.37518,396.824522 L151.375199,396.824614 Z" id="Path" fill="#FF7043" transform="translate(147.971373, 393.901694) rotate(23.511569) translate(-147.971373, -393.901694) "></path>
        <path d="M199.792454,396.824614 C199.567045,397.079647 196.600694,396.795298 196.249523,396.750916 C195.912991,396.708389 193.079533,396.257994 192.960637,395.961307 C192.836521,395.651722 194.583803,393.397937 194.800514,393.136473 C195.008271,392.885915 196.843213,390.822531 197.17813,390.874805 C197.527656,390.929358 198.746823,393.467482 198.881184,393.773319 C199.009969,394.066405 200.008476,396.580147 199.792434,396.824522 L199.792454,396.824614 Z" id="Path" fill="#FF7043" transform="translate(196.388627, 393.901694) scale(-1, 1) rotate(23.511569) translate(-196.388627, -393.901694) "></path>
        <rect id="Rectangle" fill="#26C6DA" transform="translate(181.110000, 427.320100) scale(-1, 1) translate(-181.110000, -427.320100) " x="165.801" y="424.147" width="30.618" height="6.3462"></rect>
        <path d="M200.157331,429.422378 C199.992802,429.665873 197.827628,429.394389 197.571304,429.352014 C197.325665,429.311411 195.257491,428.881392 195.170708,428.598128 C195.080114,428.302549 196.355476,426.150727 196.513656,425.901092 C196.6653,425.66187 198.004645,423.691836 198.249105,423.741745 C198.504228,423.79383 199.394113,426.217127 199.492184,426.509127 C199.586186,426.788953 200.315008,429.188971 200.157316,429.42229 L200.157331,429.422378 Z" id="Path" fill="#26C6DA" transform="translate(197.672838, 426.631694) scale(-1, 1) rotate(18.396675) translate(-197.672838, -426.631694) "></path>
        <path d="M166.975655,429.422378 C166.811126,429.665873 164.645952,429.394389 164.389628,429.352014 C164.143989,429.311411 162.075815,428.881392 161.989032,428.598128 C161.898438,428.302549 163.1738,426.150727 163.33198,425.901092 C163.483624,425.66187 164.822969,423.691836 165.067429,423.741745 C165.322552,423.79383 166.212437,426.217127 166.310508,426.509127 C166.40451,426.788953 167.133331,429.188971 166.97564,429.42229 L166.975655,429.422378 Z" id="Path" fill="#26C6DA" transform="translate(164.491162, 426.631694) rotate(18.396675) translate(-164.491162, -426.631694) "></path>
        <rect id="Rectangle" fill="#FF7043" transform="translate(129.065500, 427.320100) scale(-1, 1) translate(-129.065500, -427.320100) " x="106.722" y="424.147" width="44.687" height="6.3462"></rect>
        <path d="M156.632454,429.554614 C156.407045,429.809647 153.440694,429.525298 153.089523,429.480916 C152.752991,429.438389 149.919533,428.987994 149.800637,428.691307 C149.676521,428.381722 151.423803,426.127937 151.640514,425.866473 C151.848271,425.615915 153.683213,423.552531 154.01813,423.604805 C154.367656,423.659358 155.586823,426.197482 155.721184,426.503319 C155.849969,426.796405 156.848476,429.310147 156.632434,429.554522 L156.632454,429.554614 Z" id="Path" fill="#FF7043" transform="translate(153.228627, 426.631694) scale(-1, 1) rotate(23.511569) translate(-153.228627, -426.631694) "></path>
        <path d="M108.216199,429.554614 C107.99079,429.809647 105.024439,429.525298 104.673269,429.480916 C104.336736,429.438389 101.503278,428.987994 101.384382,428.691307 C101.260266,428.381722 103.007548,426.127937 103.224259,425.866473 C103.432016,425.615915 105.266958,423.552531 105.601876,423.604805 C105.951401,423.659358 107.170568,426.197482 107.304929,426.503319 C107.433715,426.796405 108.432221,429.310147 108.21618,429.554522 L108.216199,429.554614 Z" id="Path" fill="#FF7043" transform="translate(104.812373, 426.631694) rotate(23.511569) translate(-104.812373, -426.631694) "></path>
    </g>
</svg>