<?xml version="1.0" encoding="UTF-8"?>
<svg width="510px" height="434px" viewBox="0 0 510 434" version="1.1" xmlns="http://www.w3.org/2000/svg" xmlns:xlink="http://www.w3.org/1999/xlink">
    <!-- Generator: Sketch 52.2 (67145) - http://www.bohemiancoding.com/sketch -->
    <title>Untitled 2</title>
    <desc>Created with Sketch.</desc>
    <g id="Page-1" stroke="none" stroke-width="1" fill="none" fill-rule="evenodd">
        <g id="Group" transform="translate(0.710000, 0.867000)">
            <polygon id="Path" fill="#F2F2F2" points="198.5 342.1 310.92 344.6417 320.1626 432.6157 188.8026 432.6157"></polygon>
            <polygon id="Path" fill="#CCCCCC" points="198.5 342.1 195.5632 369.49 313.5232 369.49 310.9125 344.642 198.5025 342.0995"></polygon>
            <rect id="Rectangle" fill="#FFFFFF" transform="translate(254.510000, 196.260000) scale(-1, 1) rotate(-180.000000) translate(-254.510000, -196.260000) " x="0.27" y="29.33" width="508.48" height="333.86"></rect>
            <path d="M0.2,22.27 L0.2,316.63 L508.83,316.63 L508.83,22.27 L0.2,22.27 Z M12.189,37.482 L494.629,37.482 L429.928,279.932 L68.388,255.751 L12.189,37.482 Z" id="Shape" fill="#333333"></path>
            <rect id="Rectangle" fill="#333333" x="0.21" y="0.72" width="508.59" height="140.16"></rect>
            <rect id="Rectangle" fill="#ECECEC" x="20.77" y="23.08" width="467.48" height="269.36"></rect>
            <rect id="Rectangle" fill="#FFFFFF" x="150.9" y="419.29" width="207.17" height="13.328"></rect>
            <circle id="Oval" fill="#333333" cx="254.5" cy="340.5" r="13.071"></circle>
            <rect id="Rectangle" fill="#FFFFFF" x="54.58" y="23.08" width="399.85" height="269.36"></rect>
            <rect id="Rectangle" fill="#66BB6A" x="61.04" y="30.91" width="387.1" height="64.962"></rect>
            <rect id="Rectangle" fill="#64B5F6" x="61.04" y="102.01" width="387.1" height="16.51"></rect>
            <rect id="Rectangle" fill="#1E88E5" x="64.38" y="104.12" width="39.957" height="12.27"></rect>
            <rect id="Rectangle" fill="#1E88E5" x="107.49" y="104.12" width="39.957" height="12.27"></rect>
            <rect id="Rectangle" fill="#1E88E5" x="151.2" y="104.12" width="51.283" height="12.27"></rect>
            <rect id="Rectangle" fill="#1E88E5" x="206.4" y="104.12" width="37.755" height="12.27"></rect>
            <rect id="Rectangle" fill="#1E88E5" x="246.9" y="104.12" width="51.283" height="12.27"></rect>
            <rect id="Rectangle" fill="#64B5F6" x="61.04" y="124.04" width="144.01" height="126.63"></rect>
            <rect id="Rectangle" fill="#F06292" x="354.3" y="124.04" width="93.873" height="162.49"></rect>
            <path d="M392.4,129.45 L381.703,140.147 L368.49,207.477 L354.293,230.791 L354.293,286.533 L368.027,286.533 L432.671,254.67 C432.671,254.67 445.257,206.218 445.257,203.701 C445.257,201.184 392.4,129.449 392.4,129.449 L392.4,129.45 Z" id="Path" fill="#D81B60"></path>
            <rect id="Rectangle" fill="#64B5F6" x="61.04" y="256.18" width="31.889" height="30.461"></rect>
            <rect id="Rectangle" fill="#64B5F6" x="98.42" y="256.18" width="31.889" height="30.461"></rect>
            <rect id="Rectangle" fill="#64B5F6" x="135.8" y="256.18" width="31.889" height="30.461"></rect>
            <rect id="Rectangle" fill="#64B5F6" x="173.2" y="256.18" width="31.889" height="30.461"></rect>
            <rect id="Rectangle" fill="#999999" x="213" y="124.41" width="84.948" height="8.1802"></rect>
            <rect id="Rectangle" fill="#999999" x="213.7" y="136.37" width="72.363" height="2.517"></rect>
            <rect id="Rectangle" fill="#AED581" x="214.6" y="156.19" width="44.676" height="6.2924"></rect>
            <rect id="Rectangle" fill="#AED581" x="214.6" y="166.89" width="37.125" height="6.2924"></rect>
            <rect id="Rectangle" fill="#AED581" x="214.6" y="176.95" width="37.125" height="6.2924"></rect>
            <rect id="Rectangle" fill="#AED581" x="214.6" y="187.02" width="32.091" height="6.2924"></rect>
            <rect id="Rectangle" fill="#AED581" x="214.6" y="197.09" width="32.091" height="6.2924"></rect>
            <rect id="Rectangle" fill="#AED581" x="214.6" y="207.79" width="37.125" height="6.2924"></rect>
            <rect id="Rectangle" fill="#AED581" x="214.6" y="218.8" width="43.733" height="6.2924"></rect>
            <rect id="Rectangle" fill="#AED581" x="214.6" y="228.24" width="43.733" height="6.2924"></rect>
            <rect id="Rectangle" fill="#AED581" x="264.7" y="156.19" width="2.1843" height="6.2924"></rect>
            <rect id="Rectangle" fill="#AED581" x="264.7" y="166.2" width="2.1843" height="6.2924"></rect>
            <rect id="Rectangle" fill="#AED581" x="264.7" y="176.43" width="2.1843" height="6.2924"></rect>
            <rect id="Rectangle" fill="#AED581" x="264.7" y="186" width="2.1843" height="6.2924"></rect>
            <rect id="Rectangle" fill="#AED581" x="264.7" y="196.46" width="2.1843" height="6.2924"></rect>
            <rect id="Rectangle" fill="#AED581" x="264.7" y="207.36" width="2.1843" height="6.2924"></rect>
            <rect id="Rectangle" fill="#AED581" x="264.7" y="218.7" width="2.1843" height="6.2924"></rect>
            <rect id="Rectangle" fill="#AED581" x="264.7" y="228.05" width="2.1843" height="6.2924"></rect>
            <rect id="Rectangle" fill="#AED581" x="276.7" y="156.19" width="59.36" height="6.2924"></rect>
            <rect id="Rectangle" fill="#AED581" x="276.5" y="166.89" width="37.125" height="6.2924"></rect>
            <rect id="Rectangle" fill="#AED581" x="276.7" y="176.95" width="66.492" height="6.2924"></rect>
            <rect id="Rectangle" fill="#AED581" x="276.5" y="187.02" width="12.736" height="6.2924"></rect>
            <rect id="Rectangle" fill="#AED581" x="276.9" y="197.09" width="12.514" height="6.2924"></rect>
            <rect id="Rectangle" fill="#AED581" x="276.2" y="207.79" width="20.44" height="6.2924"></rect>
            <rect id="Rectangle" fill="#AED581" x="276.5" y="218.8" width="43.733" height="6.2924"></rect>
            <rect id="Rectangle" fill="#AED581" x="276.7" y="228.24" width="16.146" height="6.2924"></rect>
            <rect id="Rectangle" fill="#AED581" x="232.2" y="256.55" width="111.69" height="6.2924"></rect>
            <rect id="Rectangle" fill="#AED581" x="214.6" y="267.88" width="129.31" height="6.2924"></rect>
            <rect id="Rectangle" fill="#AED581" x="214.6" y="277.95" width="106.34" height="6.2924"></rect>
            <polygon id="Path" fill="#42A5F5" points="200.5 150.21 179.736 154.6143 128.767 186.7063 104.855 178.5266 61.084 199.6906 61.084 250.6636 205.104 250.6636 205.104 150.5636 200.5044 150.21009"></polygon>
            <polygon id="Path" fill="#E91E63" points="425.7 146.44 387.317 243.344 424.186 286.533 448.116 286.533 448.116 162.313 425.7 146.436"></polygon>
            <polygon id="Path" fill="#EC407A" points="363.4 169.72 354.2379 180.146 354.2379 286.536 439.2459 286.536 363.3999 169.726"></polygon>
            <polygon id="Path" fill="#42A5F5" points="91.43 264.55 86.951 265.50006 75.956 272.42266 70.7978 270.65816 61.3557 275.22356 61.3557 286.21956 92.4217 286.21956 92.4217 264.62656 91.42951 264.55026"></polygon>
            <polygon id="Path" fill="#42A5F5" points="113.78 263.95 98.417 274.276 98.417 286.641 130.308 286.641 130.308 271.95 113.781 263.95"></polygon>
            <path d="M167.7003,259.29 L151.552,269.765 L146.8333,269.765 C146.8333,269.765 140.968,272.7931 135.8113,275.3822 L135.8113,286.6362 L167.7003,286.6362 L167.7003,259.29 Z" id="Path" fill="#42A5F5"></path>
            <polygon id="Path" fill="#4CAF50" points="448.1 44.58 418.133 54.5702 332.557 62.121 258.934 52.6815 192.235 66.5255 145.671 51.4235 60.999 69.8295 60.999 95.8725 448.099 95.8725 448.099 44.5795"></polygon>
        </g>
    </g>
</svg>